<?xml version="1.0" standalone="no"?><!DOCTYPE svg PUBLIC "-//W3C//DTD SVG 1.1//EN" "http://www.w3.org/Graphics/SVG/1.1/DTD/svg11.dtd"><svg t="1680969991814" class="icon" viewBox="0 0 1053 1024" version="1.1" xmlns="http://www.w3.org/2000/svg" p-id="1065" xmlns:xlink="http://www.w3.org/1999/xlink" width="205.6640625" height="200"><path d="M988.341162 0.48439l-42.626301 620.018921-541.547777 396.230842a21.79754 21.79754 0 0 1-37.782403-14.531693l-7.750236-495.046358 629.706717-506.671712z" fill="#45CAFF" p-id="1066"></path><path d="M1053.733782 998.327342L988.825552 0.96878l-385.089877 855.432355a21.79754 21.79754 0 0 0 13.078524 30.032167l407.371807 134.17597a22.28193 22.28193 0 0 0 29.547776-22.28193zM377.041256 765.820246L988.341162 0 11.81136 567.704825a21.79754 21.79754 0 0 0 0 38.751183l336.650899 165.176915a22.28193 22.28193 0 0 0 28.578997-5.812677z" fill="#45E5FF" p-id="1067"></path></svg>